<?xml version="1.0"?>
<svg xmlns="http://www.w3.org/2000/svg" height="512px" viewBox="0 0 512 512" width="512px"><g><path d="m232 351.587a37.96 37.96 0 0 0 -6.867-21.719c-19.273-27.613-38.807-64.439-40.941-133.239a7.978 7.978 0 0 0 -12.15-6.564l-.2.126a7.881 7.881 0 0 0 -3.634 6.916c2.751 87.023 32.76 127.4 54.953 157.247l.095.128a4.852 4.852 0 0 0 8.745-2.9z" data-original="#000000" class="active-path" data-old_color="#000000" fill="#808080"/><path d="m96 80c-35.29 0-64 32.3-64 72 0 19.041 6.615 40.58 17.7 57.617 10.08 15.505 22.484 25.491 35.7 28.983l-8.145 16.289a11.821 11.821 0 0 0 10.577 17.111h16.336a11.821 11.821 0 0 0 10.573-17.107l-8.141-16.293c13.22-3.5 25.624-13.481 35.709-28.986 11.076-17.034 17.691-38.573 17.691-57.614 0-39.7-28.71-72-64-72zm-36 80a12 12 0 1 1 12-12 12 12 0 0 1 -12 12zm4-48a16 16 0 1 1 16 16 16 16 0 0 1 -16-16z" data-original="#000000" class="active-path" data-old_color="#000000" fill="#808080"/><path d="m256 72c-35.29 0-64 32.3-64 72 0 19.041 6.615 40.58 17.695 57.617 10.085 15.505 22.489 25.491 35.709 28.986l-8.145 16.289a11.821 11.821 0 0 0 10.573 17.108h16.336a11.821 11.821 0 0 0 10.573-17.107l-8.141-16.293c13.22-3.5 25.624-13.481 35.709-28.986 11.076-17.034 17.691-38.573 17.691-57.614 0-39.7-28.71-72-64-72zm-36 80a12 12 0 1 1 12-12 12 12 0 0 1 -12 12zm4-48a16 16 0 1 1 16 16 16 16 0 0 1 -16-16z" data-original="#000000" class="active-path" data-old_color="#000000" fill="#808080"/><path d="m176 0c-33.44 0-60.954 29.007-63.749 65.827 36.349 8.282 63.749 35.773 63.749 78.173 0-42.024 26.919-77.256 62.785-85.942-5.785-33.05-31.735-58.058-62.785-58.058zm-16 48a16 16 0 1 1 16-16 16 16 0 0 1 -16 16z" data-original="#000000" class="active-path" data-old_color="#000000" fill="#808080"/><path d="m352 64c-15.445 0-29.628 6.187-40.7 16.472 15.214 16.028 24.7 38.582 24.7 63.528 0 21.131-7 44.819-18.8 63.958 7.456 7.421 15.661 12.379 24.205 14.637l-8.149 16.3a11.821 11.821 0 0 0 10.576 17.105h16.336a11.821 11.821 0 0 0 10.573-17.107l-8.141-16.293c13.22-3.5 25.624-13.481 35.709-28.986 11.076-17.034 17.691-38.573 17.691-57.614 0-39.7-28.71-72-64-72zm-24 28a12 12 0 1 1 12 12 12 12 0 0 1 -12-12z" data-original="#000000" class="active-path" data-old_color="#000000" fill="#808080"/><path d="m264 408v-119.726a8.182 8.182 0 0 0 -7.467-8.257 8 8 0 0 0 -8.533 7.983v120a8 8 0 0 0 8 8 8 8 0 0 0 8-8z" data-original="#000000" class="active-path" data-old_color="#000000" fill="#808080"/><path d="m248 480v23.726a8.183 8.183 0 0 0 7.467 8.257 8 8 0 0 0 8.533-7.983v-24a8 8 0 0 0 -8-8 8 8 0 0 0 -8 8z" data-original="#000000" class="active-path" data-old_color="#000000" fill="#808080"/><path d="m336.8 411.19a33.023 33.023 0 0 0 -31.67-2.307l-49.13 22.329-49.125-22.33a33.159 33.159 0 1 0 -13.806 63.359 33.464 33.464 0 0 0 8.809-1.188l54.122-14.761 54.122 14.761a33.464 33.464 0 0 0 8.809 1.188 33.168 33.168 0 0 0 17.869-61.051zm-139.131 44.426a17.152 17.152 0 0 1 -21.664-16.974 17.244 17.244 0 0 1 17.1-16.77 17.243 17.243 0 0 1 7.145 1.576l40.74 18.519a1 1 0 0 1 -.151 1.875zm131.531-2.876a17.662 17.662 0 0 1 -15.312 2.756l-42.735-11.654a1 1 0 0 1 -.151-1.875l40.74-18.518a16.862 16.862 0 0 1 16.389 1.195 17.149 17.149 0 0 1 1.069 28.1z" data-original="#000000" class="active-path" data-old_color="#000000" fill="#808080"/><path d="m416 16c-22.422 0-42.175 13.05-53.608 32.742 39.22 5.621 69.608 42.608 69.608 87.258a119.411 119.411 0 0 1 -6.271 36.869v-.007a127.875 127.875 0 0 1 -14.008 29.478q-1.913 2.94-3.932 5.657h.046 16.336a11.821 11.821 0 0 0 10.573-17.107l-8.154-16.308c13.223-3.493 25.631-13.46 35.718-28.968 11.077-17.034 17.692-38.573 17.692-57.614 0-39.7-28.71-72-64-72zm-20 40a12 12 0 1 1 12-12 12 12 0 0 1 -12 12z" data-original="#000000" class="active-path" data-old_color="#000000" fill="#808080"/><path d="m339.068 270.864h-.011a9.374 9.374 0 0 0 -7.24 3.472c-6.678 8.144-15.5 16.6-24.946 25.644-8.259 7.91-16.843 16.14-24.823 24.954a7.985 7.985 0 0 0 -2.048 5.366 8.011 8.011 0 0 0 13.944 5.391c7.659-8.5 15.994-16.49 23.994-24.152 9.894-9.476 19.532-18.711 27.081-28.169a7.675 7.675 0 0 0 -5.951-12.506z" data-original="#000000" class="active-path" data-old_color="#000000" fill="#808080"/><path d="m416.821 223.988h-.237a7.888 7.888 0 0 0 -7.843 7.188c-1.275 14.1-5.156 30.71-15.141 44.024-12.251 16.335-36.165 31.859-61.483 48.294-17.23 11.185-34.7 22.529-49.227 34.7a8.037 8.037 0 0 0 -2.89 6.156 7.985 7.985 0 0 0 13.093 6.149c13.78-11.54 30.884-22.645 47.735-33.584 26.544-17.23 51.615-33.5 65.572-52.114 12.141-16.187 16.8-35.777 18.3-52.187a7.9 7.9 0 0 0 -7.879-8.626z" data-original="#000000" class="active-path" data-old_color="#000000" fill="#808080"/><path d="m232 377.545a8.03 8.03 0 0 0 -3-6.25c-14.11-11.377-31.167-22.553-48.618-33.987-24.316-15.931-49.166-32.213-63.664-48.028a8.2 8.2 0 0 0 -6.042-2.678 7.945 7.945 0 0 0 -5.938 13.241c15.807 17.387 40.905 33.833 66.876 50.849 16.725 10.957 33.7 22.081 47.388 33.1a8 8 0 0 0 13-6.251z" data-original="#000000" class="active-path" data-old_color="#000000" fill="#808080"/></g> </svg>
