<?xml version="1.0" standalone="no"?><!DOCTYPE svg PUBLIC "-//W3C//DTD SVG 1.1//EN" "http://www.w3.org/Graphics/SVG/1.1/DTD/svg11.dtd"><svg class="icon" height="512" viewBox="0 0 1024 1024" version="1.1" xmlns="http://www.w3.org/2000/svg"><path d="M1024 143.808C1024 61.024 966.048 3.2 883.136 3.2c-40.192 0-74.624 22.4-99.2 44.96C759.424 25.6 725.024 3.2 684.864 3.2c-20.736 0-39.936 3.648-57.056 10.4C590.592 4.864 551.872 0 512 0 229.696 0 0 229.696 0 512c0 282.304 229.696 512 512 512 282.304 0 512-229.696 512-512 0-85.696-21.664-166.208-59.072-237.216C998.528 238.848 1024 197.056 1024 143.808zM450.016 36.48c-61.664 65.44-110.56 129.888-146.912 193.856C263.52 210.432 226.784 184.704 193.696 153.728 263.904 91.296 352.288 49.152 450.016 36.48zM170.208 175.552c35.552 33.6 75.072 61.408 117.664 82.944-40.736 79.488-61.92 158.336-64.48 237.504L32.8 496C36.96 371.392 88.384 258.656 170.208 175.552zM32.8 528l190.592 0c2.528 79.232 23.712 158.048 64.448 237.536-42.56 21.504-82.08 49.312-117.664 82.912C88.384 765.312 36.96 652.608 32.8 528zM193.664 870.272c33.12-31.008 69.856-56.704 109.376-76.608 36.384 63.936 85.248 128.384 146.912 193.856C352.256 974.848 263.872 932.704 193.664 870.272zM496 988.992c-70.016-71.008-124.608-140.48-163.904-209.056 51.424-21.536 106.816-33.216 163.904-35.168L496 988.992zM496 712.768c-62.528 1.984-123.072 15.104-179.232 39.04-38.656-75.2-58.816-149.504-61.344-223.808L496 528 496 712.768zM496 496 255.424 496c2.56-74.304 22.72-148.608 61.376-223.808 56.128 23.936 116.672 37.056 179.2 39.04L496 496zM496 279.232c-57.088-1.92-112.448-13.632-163.904-35.168 39.296-68.608 93.92-138.048 163.904-209.056L496 279.232zM772.384 81.664l11.52 12.096 11.52-12.064c16.608-17.344 50.048-46.464 87.616-46.464 65.12 0 108.864 43.648 108.864 108.608 0 73.28-58.048 120.832-119.872 171.456-29.6 24.256-60.224 49.344-84.192 77.728-0.864 1.024-2.048 1.6-3.36 1.6l-1.184 0c-1.248 0-2.496-0.576-3.328-1.504-23.904-28.352-54.432-53.376-84.512-78.08-58.688-48.16-119.328-97.952-119.328-171.2 0-64.96 43.68-108.608 108.672-108.608C722.368 35.232 755.776 64.32 772.384 81.664zM587.968 38.816c-2.176 1.984-4.416 3.904-6.432 6.016-2.464-2.784-4.864-5.568-7.52-8.384C578.72 37.088 583.328 38.08 587.968 38.816zM528 35.008c12.128 12.288 23.232 24.48 34.368 36.672-11.36 20.672-18.176 44.864-18.176 72.128 0 51.264 23.68 91.808 55.456 126.944C576.16 275.168 552.32 278.4 528 279.232L528 35.008zM528 311.232c33.536-1.056 66.336-5.856 98.336-13.408 16.096 14.88 33.024 28.928 49.504 42.432 28.384 23.296 57.728 47.36 79.776 73.568 0.8 0.96 2.016 1.344 2.944 2.208 5.536 26.688 9.6 53.344 10.496 79.968L528 496 528 311.232zM528 528l241.088 0c-2.56 74.272-22.816 148.64-61.664 223.936-56.224-24-116.832-37.184-179.424-39.168L528 528zM528 744.768c57.152 1.952 112.64 13.696 164.128 35.264-39.36 68.544-94.048 138.016-164.128 209.024L528 744.768zM574.048 987.52c61.696-65.472 110.624-129.888 147.072-193.76 39.456 19.872 76.16 45.536 109.216 76.512C760.128 932.704 671.776 974.816 574.048 987.52zM853.824 848.448c-35.488-33.536-74.976-61.312-117.472-82.816 40.896-79.584 62.208-158.464 64.736-237.632l190.08 0C987.072 652.608 935.616 765.312 853.824 848.448zM801.088 496c-0.768-23.776-3.712-47.52-7.904-71.296 7.264-1.824 14.048-5.088 19.104-10.944 22.176-26.24 51.648-50.368 80.416-73.984 15.936-13.056 32.384-26.624 48.064-40.992 29.824 59.872 48.096 126.432 50.432 197.216L801.088 496z" /></svg>