<?xml version="1.0"?>
<svg fill="#1d2d5a" xmlns="http://www.w3.org/2000/svg" id="Layer_1" data-name="Layer 1" viewBox="0 0 512 512" width="512" height="410.13"><title>Public Relations</title><path d="M297.659,358.834h.092l35.669-.547-.228-15.679H297.5a8.115,8.115,0,0,0-7.953,8.228A8.128,8.128,0,0,0,297.659,358.834Z"/><path d="M295.033,224.932c-.07,1.259-.131,11.893-.153,21.279a6.01,6.01,0,0,1-.394,2.126l-19.233,50.377H303.9a6,6,0,0,1,6,6v25.894h29.209a6,6,0,0,1,6,5.913l.108,7.44,20.955-.129a28.92,28.92,0,0,0,28.6-29.159l-.083-9.014A37.441,37.441,0,0,1,364.43,269.5l-.053-3.916a37.349,37.349,0,0,1,31.05-37.316V132.407c-.492-.012-.984-.029-1.478-.034-.37,0-.748-.006-1.117-.006A97.693,97.693,0,0,0,295.033,224.932Z"/><path d="M439.061,264.579l.052,3.916a37.333,37.333,0,0,1-32.422,37.517l.08,8.55a40.892,40.892,0,0,1-40.51,41.27l-6.072.037a20.849,20.849,0,0,1,18.216,15.7l7.561,30.063h84.479c-1.552-6.508-3.841-16.726-5.993-28.712-4.945-27.538-6.656-50.056-5.085-66.928,1.131-12.137,11.447-37.887,12.619-40.783.073-.179.154-.355.243-.526a90.522,90.522,0,0,0-2.068-87.868,88.656,88.656,0,0,0-62.734-43.311v94.674A37.449,37.449,0,0,1,439.061,264.579Z"/><path d="M376.376,265.424l.053,3.916a25.4,25.4,0,0,0,25.34,25h.239a25.346,25.346,0,0,0,25.106-25.686l-.052-3.916a25.4,25.4,0,0,0-25.34-25h-.239a25.346,25.346,0,0,0-25.107,25.686Z"/><path d="M136.9,126.051a6,6,0,0,0,7.113,4.628l46-9.738a6,6,0,0,0,2.029-10.9L169.9,95.631A122.492,122.492,0,0,1,348.124,84.068a6,6,0,1,0,8.191-8.769A134.491,134.491,0,0,0,159.78,89.049L136.3,73.775a6,6,0,0,0-9.142,6.271Z"/><path d="M325.471,422.952l23.476,15.274a6,6,0,0,0,9.142-6.272l-9.737-46a6,6,0,0,0-7.113-4.628l-46,9.738a6,6,0,0,0-2.029,10.9l22.148,14.41a122.492,122.492,0,0,1-178.227,11.563,6,6,0,0,0-8.191,8.77,134.493,134.493,0,0,0,196.535-13.75Z"/><path d="M39.511,271.581c1.121,2.769,10.982,27.383,12.064,39.007,2.846,30.564-6.358,73.727-10.493,91.045h80.074l7.165-28.49a20.2,20.2,0,0,1,19.628-15.306h.086c18.079.076,27.89.134,29.162.174a16.057,16.057,0,0,0,16.511-16.048V309.392a6,6,0,0,1,6-6h26.945l-18.217-47.717a5.988,5.988,0,0,1-.394-2.126c-.021-8.94-.079-19.079-.145-20.261a92.981,92.981,0,0,0-94.147-88.131q-1.212.013-2.413.057a84.287,84.287,0,0,0-70.1,42.231,86.134,86.134,0,0,0-1.969,83.61C39.357,271.227,39.438,271.4,39.511,271.581Z"/></svg>
