<svg fill="#1d2d5a" viewBox="-28 0 512 512" xmlns="http://www.w3.org/2000/svg"><path d="m55.609375 295.578125h152.296875c4.152344 0 7.515625-3.363281 7.515625-7.515625v-120.234375c0-4.152344-3.363281-7.515625-7.515625-7.515625h-152.296875c-4.152344 0-7.515625 3.363281-7.515625 7.515625v120.234375c0 4.152344 3.363281 7.515625 7.515625 7.515625zm7.515625-120.234375h137.265625v105.203125h-137.265625zm0 0"/><path d="m247.984375 183.359375h80.15625c4.152344 0 7.515625-3.363281 7.515625-7.515625s-3.363281-7.515625-7.515625-7.515625h-80.15625c-4.152344 0-7.515625 3.363281-7.515625 7.515625s3.363281 7.515625 7.515625 7.515625zm0 0"/><path d="m247.984375 223.4375h48.09375c4.152344 0 7.515625-3.363281 7.515625-7.515625s-3.363281-7.515625-7.515625-7.515625h-48.09375c-4.152344 0-7.515625 3.363281-7.515625 7.515625s3.363281 7.515625 7.515625 7.515625zm0 0"/><path d="m55.609375 343.671875h32.0625c4.152344 0 7.515625-3.363281 7.515625-7.515625s-3.363281-7.515625-7.515625-7.515625h-32.0625c-4.152344 0-7.515625 3.363281-7.515625 7.515625s3.363281 7.515625 7.515625 7.515625zm0 0"/><path d="m207.40625 336.15625c0-4.152344-3.363281-7.515625-7.515625-7.515625h-80.15625c-4.152344 0-7.515625 3.363281-7.515625 7.515625s3.363281 7.515625 7.515625 7.515625h80.15625c4.148437 0 7.515625-3.363281 7.515625-7.515625zm0 0"/><path d="m55.609375 383.75h96.1875c4.152344 0 7.515625-3.363281 7.515625-7.515625s-3.363281-7.515625-7.515625-7.515625h-96.1875c-4.152344 0-7.515625 3.363281-7.515625 7.515625s3.363281 7.515625 7.515625 7.515625zm0 0"/><path d="m55.609375 423.828125h128.25c4.152344 0 7.515625-3.363281 7.515625-7.515625s-3.363281-7.515625-7.515625-7.515625h-128.25c-4.152344 0-7.515625 3.363281-7.515625 7.515625s3.363281 7.515625 7.515625 7.515625zm0 0"/><path d="m247.984375 263.515625h16.03125c4.152344 0 7.515625-3.363281 7.515625-7.515625s-3.363281-7.515625-7.515625-7.515625h-16.03125c-4.152344 0-7.515625 3.363281-7.515625 7.515625s3.363281 7.515625 7.515625 7.515625zm0 0"/><path d="m448.925781 173.917969-22.671875-22.671875c-7.148437-7.148438-17.777344-8.703125-26.472656-4.71875v-90.917969c0-12.984375-10.5625-23.546875-23.546875-23.546875h-72.640625v-24.546875c0-4.152344-3.363281-7.515625-7.515625-7.515625s-7.515625 3.363281-7.515625 7.515625v24.546875h-81.15625v-24.546875c0-4.152344-3.363281-7.515625-7.515625-7.515625s-7.515625 3.363281-7.515625 7.515625v24.546875h-81.15625v-24.546875c0-4.152344-3.363281-7.515625-7.515625-7.515625s-7.515625 3.363281-7.515625 7.515625v24.546875h-72.640625c-12.984375 0-23.546875 10.5625-23.546875 23.546875v432.84375c0 12.984375 10.5625 23.546875 23.546875 23.546875h269.527344c4.148437 0 7.511719-3.363281 7.511719-7.515625 0-4.148437-3.363282-7.515625-7.511719-7.515625h-269.527344c-4.695313 0-8.515625-3.820312-8.515625-8.515625v-361.203125h369.71875v31.558594c0 .207031.015625.410156.03125.609375l-156.199219 156.199219c-.707031.710937-1.269531 1.574218-1.652343 2.5l-33.945313 79.203124c-2.613281 6.097657 3.753906 12.488282 9.867187 9.867188l79.207032-33.945312c.925781-.378907 1.789062-.949219 2.496094-1.652344l100.195312-100.195313v217.058594c0 4.695313-3.820312 8.515625-8.515625 8.515625h-47.09375c-4.148437 0-7.511719 3.367188-7.511719 7.515625 0 4.152344 3.363282 7.515625 7.511719 7.515625h47.09375c12.984375 0 23.546875-10.5625 23.546875-23.546875v-232.089844l49.144531-49.144531c9.179688-9.183594 9.179688-24.117188 0-33.300781zm-199.707031 197.046875-20.011719-20.011719 7.226563-16.859375 29.644531 29.644531zm-26.390625-5.132813 11.507813 11.511719-20.140626 8.628906zm170.480469-169.59375-136.738282 136.738281-12.042968-12.046874 136.738281-136.738282zm-126.109375 147.363281 136.738281-136.738281 12.042969 12.042969-136.738281 136.742188zm-252.167969-231.382812v-56.609375c0-4.695313 3.820312-8.515625 8.515625-8.515625h72.640625v10.253906c-9.308594 3.140625-16.03125 11.953125-16.03125 22.308594 0 12.984375 10.5625 23.546875 23.546875 23.546875s23.546875-10.5625 23.546875-23.546875c0-10.355469-6.722656-19.164062-16.03125-22.308594v-10.253906h81.15625v10.253906c-9.308594 3.140625-16.03125 11.953125-16.03125 22.308594 0 12.984375 10.5625 23.546875 23.546875 23.546875s23.546875-10.5625 23.546875-23.546875c0-10.355469-6.722656-19.164062-16.03125-22.308594v-10.253906h81.15625v10.253906c-9.308594 3.140625-16.03125 11.953125-16.03125 22.308594 0 12.984375 10.5625 23.546875 23.546875 23.546875s23.546875-10.5625 23.546875-23.546875c0-10.355469-6.722656-19.164062-16.03125-22.308594v-10.253906h72.640625c4.695313 0 8.515625 3.820312 8.515625 8.515625v56.609375zm88.671875-41.078125c4.695313 0 8.515625 3.820313 8.515625 8.515625s-3.820312 8.515625-8.515625 8.515625-8.515625-3.820313-8.515625-8.515625 3.820312-8.515625 8.515625-8.515625zm96.1875 0c4.695313 0 8.515625 3.820313 8.515625 8.515625s-3.820312 8.515625-8.515625 8.515625-8.515625-3.820313-8.515625-8.515625 3.820312-8.515625 8.515625-8.515625zm96.1875 0c4.695313 0 8.515625 3.820313 8.515625 8.515625s-3.820312 8.515625-8.515625 8.515625-8.515625-3.820313-8.515625-8.515625 3.820312-8.515625 8.515625-8.515625zm130.527344 137.140625-34.714844-34.714844 11.691406-11.691406c3.269531-3.273438 8.773438-3.273438 12.042969 0l22.671875 22.671875c3.277344 3.273437 3.277344 8.773437 0 12.042969zm0 0"/></svg>